Coordinates
version=1
nRows=7
nColumns=40
inDegrees=yes

Units are S.I. units (second, meters, Newtons, ...)
If the header above contains a line with 'inDegrees', this indicates whether rotational values are in degrees (yes) or radians (no).

endheader
time	pelvis_tilt	pelvis_list	pelvis_rotation	pelvis_tx	pelvis_ty	pelvis_tz	hip_flexion_r	hip_adduction_r	hip_rotation_r	knee_angle_r	knee_angle_r_beta	ankle_angle_r	subtalar_angle_r	mtp_angle_r	hip_flexion_l	hip_adduction_l	hip_rotation_l	knee_angle_l	knee_angle_l_beta	ankle_angle_l	subtalar_angle_l	mtp_angle_l	lumbar_extension	lumbar_bending	lumbar_rotation	arm_flex_r	arm_add_r	arm_rot_r	elbow_flex_r	pro_sup_r	wrist_flex_r	wrist_dev_r	arm_flex_l	arm_add_l	arm_rot_l	elbow_flex_l	pro_sup_l	wrist_flex_l	wrist_dev_l
      0.16000000	     10.86753749	      6.48418753	     -7.70922505	     -1.06789496	      0.93589576	      0.23515419	    -16.07024940	    -12.87147468	     -1.05377639	     51.71221609	      0.90254843	     -6.39423820	      0.00000000	      0.00000000	     10.58674290	      7.17642507	     -1.99437638	     17.51396512	      0.30567636	     -2.00661570	      0.00000000	      0.00000000	    -22.53976449	     -9.34541477	      8.55343623	     -2.14827100	     -9.64183617	     -7.26998272	     60.56830394	     88.49396243	    -10.54776402	     -2.34538457	     -9.59846175	     -6.34872471	    -15.37372238	     22.04579276	     88.46600650	    -12.11288957	      7.58606865
      0.17000000	     10.62551624	      7.41726842	     -7.91952698	     -1.05547229	      0.93640113	      0.23401172	    -13.81506761	    -13.99763023	     -0.01827251	     55.10379070	      0.96174258	     -7.25922736	      0.00000000	      0.00000000	     10.35871997	      8.35466492	     -2.01595342	     17.81471193	      0.31092538	     -1.30674026	      0.00000000	      0.00000000	    -22.29697452	    -10.35803487	      7.97914408	     -2.30006524	     -9.28618771	     -6.95779844	     59.74668166	     88.46998483	    -10.45560411	     -2.28114377	     -9.19589395	     -6.53188027	    -15.52851795	     22.77176672	     88.48112282	    -11.75018207	      7.71137192
      0.18000000	     10.43468796	      8.10774577	     -8.16680318	     -1.04354294	      0.93711842	      0.23281848	    -11.51271793	    -14.75290043	      1.34260969	     58.27487720	      1.01708848	     -7.74813924	      0.00000000	      0.00000000	      9.99193775	      9.28908176	     -2.06592473	     17.97353300	      0.31369733	     -0.44029703	      0.00000000	      0.00000000	    -22.18867262	    -11.06541660	      7.37829475	     -2.33586324	     -8.95357255	     -6.66833950	     58.93524532	     88.46963848	    -10.40473659	     -2.17294084	     -8.76014194	     -6.61244105	    -15.64769230	     23.51400834	     88.51332159	    -11.69866781	      7.65436383
      0.19000000	     10.18513656	      8.71143547	     -8.48656600	     -1.03191638	      0.93784421	      0.23185979	     -9.03899751	    -15.32738950	      2.82844565	     61.25388940	      1.06908205	     -7.65002976	      0.00000000	      0.00000000	      9.61629231	     10.09738570	     -2.22639425	     17.97539989	      0.31372991	      0.43830744	      0.00000000	      0.00000000	    -22.03324601	    -11.71900390	      6.89789201	     -2.33989221	     -8.69519940	     -6.23766031	     57.99794595	     88.48113400	    -10.33248312	     -2.00190311	     -8.24996167	     -6.70910246	    -15.66745659	     24.28588780	     88.53430425	    -11.74873901	      7.51006648
      0.20000000	      9.93329986	      9.17460118	     -8.85143631	     -1.02065516	      0.93868970	      0.23104116	     -6.50174848	    -15.64389470	      4.40701979	     63.96440075	      1.11638940	     -7.06336997	      0.00000000	      0.00000000	      9.15738104	     10.74551051	     -2.41305664	     17.78948639	      0.31048511	      1.27519338	      0.00000000	      0.00000000	    -21.91011210	    -12.22980051	      6.51918572	     -2.31204291	     -8.51041554	     -5.72880815	     57.00689782	     88.47974541	    -10.23958507	     -1.82322609	     -7.65530560	     -6.79670105	    -15.59688860	     25.06654915	     88.55866147	    -11.87160392	      7.28982011
      0.21000000	      9.85469307	      9.37779370	     -9.14986017	     -1.00952101	      0.94000878	      0.23017025	     -4.25114754	    -15.60659889	      5.84066368	     66.23713873	      1.15605616	     -6.08782243	      0.00000000	      0.00000000	      8.36100165	     11.17146425	     -2.44196881	     17.40761225	      0.30382015	      2.12733495	      0.00000000	      0.00000000	    -22.05875776	    -12.43892722	      6.12266733	     -2.28104548	     -8.40214818	     -5.19018202	     56.07934295	     88.50120521	    -10.13531978	     -1.62656108	     -7.01909362	     -6.88985125	    -15.29341364	     25.92964582	     88.57581243	    -11.95933610	      7.04688936
      0.22000000	      9.52823769	      9.69596707	     -9.65711063	     -0.99873686	      0.94087472	      0.22960182	     -1.53183655	    -15.57377667	      7.52990977	     68.35556974	      1.19302975	     -4.86819893	      0.00000000	      0.00000000	      7.88846582	     11.61898578	     -2.87807865	     16.98768951	      0.29649111	      2.73208427	      0.00000000	      0.00000000	    -21.83343237	    -12.78626817	      5.88513912	     -2.13834627	     -8.29560431	     -4.55852917	     54.88456083	     88.50375918	     -9.99596118	     -1.36912220	     -6.32764118	     -6.94851856	    -15.13967469	     26.66983136	     88.60576943	    -12.29071561	      6.68540709
